<?xml version="1.0" encoding="utf-8"?>
<!-- Generator: Adobe Illustrator 22.0.0, SVG Export Plug-In . SVG Version: 6.00 Build 0)  -->
<svg version="1.1" id="Layer_1" xmlns="http://www.w3.org/2000/svg" xmlns:xlink="http://www.w3.org/1999/xlink" x="0px" y="0px"
	 viewBox="0 0 175 30" style="enable-background:new 0 0 175 30;" xml:space="preserve">
<style type="text/css">
	.st0{clip-path:url(#SVGID_2_);fill:#525F7F;}
	.st1{clip-path:url(#SVGID_2_);fill-rule:evenodd;clip-rule:evenodd;fill:#4B72E6;}
</style>
<g>
	<defs>
		<rect id="SVGID_1_" width="175" height="30"/>
	</defs>
	<clipPath id="SVGID_2_">
		<use xlink:href="#SVGID_1_"  style="overflow:visible;"/>
	</clipPath>
	<path class="st0" d="M0,3.2l6.1-1.7v22.6H0V3.2z M25.1,24.1h-5.6v-8.2c0-2.1,0.1-4.4-2.6-4.4c-2.2,0-3.2,1.5-3.2,3.6v9.1H8.1V8.3
		l5.5-1.5v3C14.6,8,16.9,6.9,19,6.9c4.5,0,6.2,2.5,6.2,6.5V24.1z M30.5,24.1L24.8,7.4h5.8l3.2,11.2L37,7.4h5.7L37,24.1H30.5z
		 M54,13.4c-0.3-1.5-1.6-2.8-3.3-2.8c-2.5,0-3.8,2.3-3.7,4.7L54,13.4z M51.2,21c2.4,0,4.8-1.1,6.2-2.9l1.5,4
		c-2.1,1.7-5.3,2.6-8.1,2.6c-5.4,0-9.5-3.1-9.5-8.9c0-5.1,4.1-8.8,9.3-8.8c5.4,0,8.7,3.5,8.6,8.7l-11.9,3.2
		C48.1,20.3,49.6,21,51.2,21 M70.3,13.8c1.3,0.2,2.8,0.5,3.8,1.1c1.3,0.8,2.2,2.2,2.2,3.8c0,4.4-4.3,6-8.4,6c-3.7,0-7.6-1.2-8.3-5
		l4.8-1.3c0.3,1.8,1.5,2.8,3.4,2.8c1.2,0,2.8-0.5,2.8-1.8c0-1.3-1.7-1.6-2.7-1.8c-0.7-0.2-1.4-0.3-2.2-0.5c-2.9-0.6-5.7-1.4-5.7-5
		c0-4,4.5-5.1,7.8-5.1c3.2,0,7.3,1,7.9,4.3l-4.9,1.3c-0.3-1.5-1.3-2.1-3.1-2.1c-0.9,0-2.1,0.3-2.1,1.3c0,1.1,2,1.6,2.9,1.7
		C69.1,13.6,69.7,13.7,70.3,13.8 M82.8,11v7.6c0,0.7,0.3,1.3,0.9,1.5c0.9,0.3,2.4,0.1,3.1-0.1l-1.2,4.2c-0.8,0.1-1.8,0.2-2.5,0.2
		c-4.8,0-6-1.4-6-5.9V4.3l5.6-1.5v4.6h4.1l-1,3.5H82.8z M87.6,8.4l5.6-1.5v17.3h-5.6V8.4z M106.6,15.9c0-2.1,0.1-4.4-2.6-4.4
		c-2.2,0-3.2,1.5-3.2,3.6v9.1h-5.6V8.3l5.5-1.5v3c1.1-1.9,3.4-2.9,5.5-2.9c4.5,0,6.2,2.5,6.2,6.5v10.7h-5.6V15.9z M122.4,11.1
		c-2.5,0-3.3,2.1-3.3,4.2c0,2,0.9,3.9,3.2,3.9c2.4,0,3.4-1.8,3.4-3.9C125.8,13.2,124.9,11.1,122.4,11.1 M122.1,30
		c-3.3,0-6.9-0.9-8-4.4l5-1.4c0.4,1.5,1.7,2.3,3.2,2.3c2.3,0,3.3-1.8,3.3-3.9v-1.7c-1.1,1.6-2.8,2.6-4.6,2.5c-5.2,0-7.5-3.6-7.5-8.3
		c0-4.4,2.7-8.2,7.5-8.2c2,0,3.6,0.9,4.7,2.6V8.3l5.4-1.5v15.3C131.1,27.4,127.1,30,122.1,30 M133.6,21.9h1.8v2.3h-1.8V21.9z
		 M142.1,23.3c1.6,0,2.9-1.4,3.1-3.1l1.3,0.4c-0.5,2.3-2,3.9-4.4,3.9c-3.3,0-5.1-2.7-5.1-5.8c0-3.1,1.8-5.8,5.1-5.8
		c2.2,0,3.9,1.2,4.3,3.4l-1.3,0.4c-0.4-1.6-1.4-2.6-3-2.6c-2.5,0-3.8,2.4-3.8,4.7C138.3,20.9,139.6,23.3,142.1,23.3 M152.9,14
		c-2.5,0-3.8,2.4-3.8,4.7s1.3,4.7,3.8,4.7c2.5,0,3.8-2.4,3.8-4.7C156.7,16.3,155.4,14,152.9,14 M152.9,24.4c-3.3,0-5.1-2.7-5.1-5.8
		c0-3.1,1.8-5.8,5.1-5.8c3.3,0,5.1,2.7,5.1,5.8C158,21.8,156.2,24.5,152.9,24.4 M173.6,24.1v-7.4c0-1.8-0.7-2.8-2.6-2.8
		c-2.3,0-3,2-2.9,4v6.2h-1.4v-7.4c0-1.5-0.6-2.7-2.3-2.7c-2.4,0-3.2,2-3.2,4v6.1h-1.4V13.3l1.3-0.3v2.1c0.8-1.5,2.1-2.3,3.6-2.3
		c1.4,0,2.7,0.7,3.1,2.1c0.7-1.4,2-2.1,3.5-2.1c2.5,0,3.6,1.4,3.6,3.8v7.4H173.6z"/>
	<polygon class="st1" points="87.6,1.5 93.3,0 93.3,4.6 87.6,6.1 	"/>
</g>
</svg>
